# xmcd
#
# Track frame offsets:
#	150
#	19782
#	31752
#	44060
#	55245
#	68340
#	80220
#	98917
#	112805
#	124707
#	136725
#	148980
#	161840
#	185055
#	198695
#	222005
#	234380
#	245137
#	256822
#	268422
#
# Disc length: 3905
#
# Revision: 2
# Processed by: cddbd v1.5.1PL0 Copyright (c) Steve Scherf et al.
# Submitted via: ExactAudioCopy v0.90b3
# Normalized: r1:DSETVAR1
#
DISCID=2c0f3f14
DTITLE=Various Artist - Blues Classics 1927-1969 [CD3, 1960-1969)
DYEAR=1996
DGENRE=Blues
TTITLE0=Muddy Waters - Got My Mojo Working (live)
TTITLE1=Junior Parker - Drivin' Wheel
TTITLE2=Bobby 'Blue' Bland - I Pity The Fool
TTITLE3=Howlin' Wolf - The Red Rooster
TTITLE4=Howlin' Wolf - I Ain't Superstitious
TTITLE5=Bobby 'Blue' Bland - Turn On Your Love Light
TTITLE6=Bobby 'Blue' Bland - Stormy Monday Blues
TTITLE7=Albert Collins - Frosty
TTITLE8=Otis Rush - Homework
TTITLE9=Sonny Boy Williamson - Bring It On Home
TTITLE10=B.B. King - How Blue Can You Get
TTITLE11=Howlin' Wolf - Killing Floor
TTITLE12=John Lee Hooker - It Serves You Right To Suffer
TTITLE13=Koko Taylor - Wang Dang Doodle
TTITLE14=B.B. King - Don't Answer The Door
TTITLE15=John Lee Hooker - I'm In The Mood
TTITLE16=Etta James - Tell Mama
TTITLE17=Etta James - I'd Rather Go Blind
TTITLE18=B.B. King - Paying The Cost To Be The Boss
TTITLE19=B.B. King - The Thrill Is Gone
EXTD=
EXTT0=
EXTT1=
EXTT2=
EXTT3=
EXTT4=
EXTT5=
EXTT6=
EXTT7=
EXTT8=
EXTT9=
EXTT10=
EXTT11=
EXTT12=
EXTT13=
EXTT14=
EXTT15=
EXTT16=
EXTT17=
EXTT18=
EXTT19=
PLAYORDER=
